<?xml version="1.0" encoding="utf-8"?>
<!-- Generator: Adobe Illustrator 16.0.0, SVG Export Plug-In . SVG Version: 6.00 Build 0)  -->
<!DOCTYPE svg PUBLIC "-//W3C//DTD SVG 1.1//EN" "http://www.w3.org/Graphics/SVG/1.1/DTD/svg11.dtd">
<svg version="1.1" id="Layer_1" xmlns="http://www.w3.org/2000/svg" xmlns:xlink="http://www.w3.org/1999/xlink" x="0px" y="0px"
	 width="125px" height="55px" viewBox="0 0 125 55" enable-background="new 0 0 125 55" xml:space="preserve">
<text transform="matrix(1 0 0 1 30.5 48.25)" fill="#FCFCFC" font-family="'ArialMT'" font-size="14">FASHION</text>
<image overflow="visible" opacity="0.4" enable-background="new    " width="104" height="52" xlink:href="402C4E7A.png"  transform="matrix(1 0 0 1 8 1)">
</image>
<g>
	<g enable-background="new    ">
		<path fill="#FFFFFF" d="M11.987,17.668c1.108,0.902,2.412,1.354,3.913,1.354c1.917,0,2.876-0.656,2.876-1.97
			c0-0.38-0.106-0.723-0.317-1.027c-0.212-0.305-0.497-0.571-0.854-0.799c-0.358-0.227-1.066-0.593-2.125-1.097
			c-1.301-0.623-2.21-1.255-2.727-1.896c-0.517-0.642-0.775-1.395-0.775-2.26c0-1.245,0.492-2.226,1.475-2.941
			c0.984-0.716,2.241-1.074,3.772-1.074c1.451,0,2.546,0.178,3.287,0.532v2.298c-0.891-0.617-2.001-0.925-3.333-0.925
			c-0.853,0-1.541,0.171-2.064,0.514c-0.523,0.342-0.784,0.813-0.784,1.41c0,0.541,0.191,0.986,0.574,1.335s1.19,0.815,2.423,1.4
			c1.438,0.673,2.431,1.347,2.979,2.021c0.548,0.676,0.822,1.452,0.822,2.33c0,1.308-0.473,2.307-1.419,2.997
			c-0.946,0.691-2.256,1.037-3.931,1.037c-0.616,0-1.301-0.075-2.054-0.225c-0.753-0.149-1.332-0.349-1.737-0.598V17.668z"/>
		<path fill="#FFFFFF" d="M31.848,20.665h-8.012V6.201h7.685v1.924h-5.443v4.258h5.051v1.914h-5.051v4.444h5.771V20.665z"/>
		<path fill="#FFFFFF" d="M42.371,20.665h-7.89V6.201h2.241v12.54h5.649V20.665z"/>
		<path fill="#FFFFFF" d="M52.381,20.665h-7.89V6.201h2.241v12.54h5.649V20.665z"/>
		<path fill="#FFFFFF" d="M64.044,18.816c-1.426,1.388-3.163,2.082-5.21,2.082c-1.563,0-2.803-0.378-3.721-1.135
			c-0.918-0.756-1.377-1.797-1.377-3.123c0-1.942,1.136-3.387,3.408-4.333c-1.133-0.878-1.7-1.889-1.7-3.034
			c0-1.009,0.361-1.813,1.083-2.414c0.722-0.601,1.684-0.901,2.885-0.901c1.108,0,2.014,0.285,2.717,0.854
			c0.703,0.569,1.056,1.318,1.056,2.246c0,1.487-0.897,2.599-2.69,3.333c1.376,0.566,2.645,1.731,3.81,3.492
			c1.07-1.45,1.606-3.162,1.606-5.136c0-0.491-0.063-0.955-0.188-1.391h1.998c0.105,0.367,0.159,0.815,0.159,1.345
			c0,2.359-0.847,4.6-2.54,6.723c0.479,0.604,0.893,1.025,1.242,1.266c0.348,0.239,0.729,0.359,1.139,0.359
			c0.43,0,0.922-0.109,1.476-0.327v1.84c-0.579,0.224-1.183,0.336-1.812,0.336c-0.623,0-1.186-0.152-1.689-0.457
			C65.192,20.136,64.642,19.595,64.044,18.816z M63.045,17.313c-1.264-2.041-2.745-3.383-4.445-4.024
			c-1.755,0.723-2.633,1.812-2.633,3.269c0,0.784,0.27,1.407,0.808,1.867c0.539,0.461,1.247,0.691,2.125,0.691
			C60.511,19.115,61.893,18.515,63.045,17.313z M58.964,11.515c1.481-0.511,2.222-1.273,2.222-2.288
			c0-0.504-0.171-0.907-0.513-1.209c-0.343-0.302-0.763-0.453-1.261-0.453c-0.579,0-1.049,0.162-1.41,0.485
			c-0.361,0.324-0.542,0.744-0.542,1.261C57.461,10.226,57.962,10.96,58.964,11.515z"/>
		<path fill="#FFFFFF" d="M71.383,20.665V6.201h4.52c1.363,0,2.439,0.302,3.227,0.905c0.787,0.604,1.182,1.417,1.182,2.438
			c0,0.797-0.24,1.497-0.72,2.101c-0.479,0.604-1.11,1.027-1.896,1.271v0.037c0.984,0.112,1.775,0.482,2.377,1.111
			c0.6,0.629,0.9,1.426,0.9,2.391c0,1.257-0.449,2.273-1.35,3.049c-0.898,0.774-2.086,1.162-3.562,1.162H71.383z M73.625,8.041
			v4.229h1.624c0.853,0,1.516-0.205,1.989-0.616c0.473-0.411,0.709-0.975,0.709-1.69c0-1.282-0.877-1.923-2.633-1.923H73.625z
			 M73.625,14.119v4.706h2.109c0.916,0,1.625-0.211,2.129-0.635c0.504-0.423,0.757-1.012,0.757-1.765
			c0-1.537-1.036-2.307-3.11-2.307H73.625z"/>
		<path fill="#FFFFFF" d="M94.718,14.67c0,4.159-1.901,6.238-5.705,6.238c-3.647,0-5.472-2.011-5.472-6.032V6.201h2.24v8.618
			c0,2.746,1.134,4.118,3.399,4.118c2.198,0,3.296-1.326,3.296-3.978V6.201h2.241V14.67z"/>
		<path fill="#FFFFFF" d="M108.09,6.201l-4.744,9.188v5.275h-2.25v-5.229l-4.632-9.234h2.567l2.914,6.135
			c0,0.006,0.115,0.336,0.346,0.99h0.027c0.075-0.324,0.196-0.647,0.365-0.972l3.025-6.153H108.09z"/>
	</g>
	<g enable-background="new    ">
		<path fill="#FFFFFF" d="M46.097,43.044c-1.07,0.541-2.418,0.813-4.043,0.813c-2.092,0-3.768-0.658-5.028-1.976
			c-1.261-1.316-1.891-3.055-1.891-5.215c0-2.253,0.699-4.11,2.096-5.569c1.397-1.46,3.198-2.19,5.402-2.19
			c1.388,0,2.543,0.193,3.464,0.579v2.27c-1.021-0.573-2.15-0.859-3.389-0.859c-1.575,0-2.839,0.519-3.791,1.555
			c-0.953,1.036-1.429,2.392-1.429,4.066c0,1.6,0.446,2.895,1.34,3.885c0.893,0.989,2.09,1.484,3.59,1.484
			c1.395,0,2.621-0.32,3.679-0.962V43.044z"/>
		<path fill="#FFFFFF" d="M60.617,43.613h-2.465l-1.354-3.763h-5.789l-1.289,3.763h-2.465l5.453-14.464h2.493L60.617,43.613z
			 M56.172,37.992l-2.017-5.705c-0.075-0.206-0.149-0.57-0.224-1.093h-0.065c-0.056,0.43-0.134,0.787-0.233,1.074l-2.008,5.724
			H56.172z"/>
		<path fill="#FFFFFF" d="M73.615,43.613H70.99l-2.353-3.94c-0.46-0.771-0.88-1.298-1.256-1.578s-0.808-0.42-1.293-0.42h-1.214
			v5.938h-2.241V29.149h4.604c1.5,0,2.659,0.338,3.478,1.013c0.819,0.676,1.229,1.633,1.229,2.872c0,0.971-0.283,1.802-0.85,2.493
			c-0.566,0.69-1.357,1.173-2.372,1.447v0.037c0.647,0.224,1.373,0.983,2.176,2.278L73.615,43.613z M64.875,30.998v4.818h1.988
			c0.828,0,1.49-0.239,1.984-0.719c0.495-0.479,0.742-1.09,0.742-1.83c0-1.513-0.896-2.27-2.689-2.27H64.875z"/>
		<path fill="#FFFFFF" d="M74.707,40.616c1.107,0.902,2.412,1.354,3.912,1.354c1.918,0,2.877-0.656,2.877-1.97
			c0-0.38-0.106-0.723-0.318-1.027c-0.211-0.305-0.496-0.571-0.854-0.799c-0.358-0.227-1.066-0.593-2.125-1.097
			c-1.301-0.623-2.21-1.255-2.727-1.896c-0.517-0.642-0.775-1.395-0.775-2.26c0-1.245,0.492-2.226,1.476-2.941
			s2.241-1.074,3.772-1.074c1.451,0,2.546,0.178,3.287,0.532v2.298c-0.891-0.617-2.002-0.925-3.334-0.925
			c-0.853,0-1.541,0.171-2.063,0.514c-0.522,0.342-0.784,0.813-0.784,1.41c0,0.541,0.191,0.986,0.574,1.335s1.19,0.815,2.424,1.4
			c1.438,0.673,2.43,1.347,2.979,2.021c0.547,0.676,0.821,1.452,0.821,2.33c0,1.308-0.474,2.307-1.419,2.997
			c-0.947,0.691-2.257,1.037-3.932,1.037c-0.616,0-1.301-0.075-2.055-0.225c-0.753-0.149-1.332-0.349-1.736-0.598V40.616z"/>
	</g>
</g>
</svg>
