<?xml version="1.0" encoding="utf-8"?>
<!-- Generator: Adobe Illustrator 16.0.0, SVG Export Plug-In . SVG Version: 6.00 Build 0)  -->
<!DOCTYPE svg PUBLIC "-//W3C//DTD SVG 1.1//EN" "http://www.w3.org/Graphics/SVG/1.1/DTD/svg11.dtd">
<svg version="1.1" id="Layer_1" xmlns="http://www.w3.org/2000/svg" xmlns:xlink="http://www.w3.org/1999/xlink" x="0px" y="0px"
	 width="125px" height="55px" viewBox="0 0 125 55" enable-background="new 0 0 125 55" xml:space="preserve">
<g>
	
		<image overflow="visible" opacity="0.4" enable-background="new    " width="116" height="57" xlink:href="D9DD25B1.png"  transform="matrix(1 0 0 1 2 1)">
	</image>
	<g>
		<g enable-background="new    ">
			<path fill="#FFFFFF" d="M6.702,19.227c1.231,1.004,2.681,1.505,4.348,1.505c2.13,0,3.196-0.729,3.196-2.189
				c0-0.422-0.118-0.802-0.353-1.142c-0.235-0.339-0.552-0.634-0.95-0.887c-0.398-0.252-1.185-0.659-2.36-1.219
				c-1.446-0.692-2.456-1.395-3.03-2.106c-0.574-0.713-0.861-1.55-0.861-2.512c0-1.383,0.546-2.473,1.64-3.268
				c1.093-0.796,2.49-1.193,4.192-1.193c1.611,0,2.829,0.197,3.652,0.591v2.553c-0.989-0.685-2.224-1.027-3.705-1.027
				c-0.948,0-1.712,0.19-2.293,0.571c-0.581,0.38-0.872,0.902-0.872,1.566c0,0.602,0.213,1.097,0.638,1.483
				c0.425,0.388,1.323,0.906,2.692,1.557c1.598,0.747,2.701,1.496,3.31,2.246c0.608,0.751,0.913,1.614,0.913,2.589
				c0,1.453-0.526,2.563-1.577,3.331s-2.507,1.151-4.368,1.151c-0.685,0-1.446-0.083-2.283-0.249s-1.48-0.387-1.93-0.664V19.227z"/>
			<path fill="#FFFFFF" d="M28.772,22.558h-8.903V6.485h8.54v2.138h-6.049v4.731h5.614v2.127h-5.614v4.938h6.413V22.558z"/>
			<path fill="#FFFFFF" d="M40.466,22.558h-8.768V6.485h2.49V20.42h6.278V22.558z"/>
			<path fill="#FFFFFF" d="M51.589,22.558h-8.768V6.485h2.49V20.42h6.278V22.558z"/>
			<path fill="#FFFFFF" d="M64.548,20.503c-1.584,1.543-3.514,2.314-5.79,2.314c-1.736,0-3.114-0.421-4.135-1.261
				c-1.02-0.841-1.53-1.998-1.53-3.471c0-2.158,1.262-3.764,3.787-4.814c-1.259-0.976-1.888-2.1-1.888-3.372
				c0-1.121,0.401-2.015,1.204-2.683c0.802-0.667,1.871-1.001,3.206-1.001c1.231,0,2.238,0.316,3.02,0.949
				c0.781,0.633,1.173,1.465,1.173,2.495c0,1.653-0.997,2.889-2.989,3.704c1.529,0.63,2.94,1.924,4.233,3.881
				c1.189-1.611,1.785-3.514,1.785-5.707c0-0.546-0.069-1.062-0.207-1.546h2.22c0.118,0.408,0.177,0.906,0.177,1.494
				c0,2.622-0.941,5.112-2.822,7.471c0.532,0.671,0.992,1.14,1.38,1.406s0.81,0.399,1.266,0.399c0.478,0,1.024-0.121,1.64-0.363
				v2.044c-0.644,0.249-1.314,0.374-2.014,0.374c-0.691,0-1.317-0.17-1.877-0.509C65.824,21.97,65.212,21.368,64.548,20.503z
				 M63.438,18.833c-1.404-2.27-3.05-3.76-4.939-4.473c-1.951,0.803-2.926,2.014-2.926,3.632c0,0.872,0.299,1.563,0.897,2.075
				c0.598,0.512,1.385,0.768,2.36,0.768C60.622,20.835,62.158,20.168,63.438,18.833z M58.903,12.39
				c1.646-0.567,2.469-1.415,2.469-2.543c0-0.56-0.19-1.008-0.57-1.343C60.421,8.168,59.955,8,59.401,8
				c-0.644,0-1.166,0.181-1.567,0.54s-0.602,0.826-0.602,1.4C57.233,10.957,57.79,11.773,58.903,12.39z"/>
			<path fill="#FFFFFF" d="M72.703,22.558V6.485h5.021c1.516,0,2.711,0.336,3.586,1.007s1.313,1.573,1.313,2.708
				c0,0.886-0.267,1.663-0.799,2.334c-0.533,0.671-1.235,1.142-2.107,1.411v0.042c1.094,0.124,1.974,0.536,2.641,1.234
				c0.668,0.699,1.002,1.584,1.002,2.656c0,1.397-0.5,2.526-1.5,3.388c-0.999,0.861-2.318,1.292-3.957,1.292H72.703z M75.193,8.529
				v4.7h1.806c0.948,0,1.685-0.229,2.21-0.685c0.525-0.457,0.789-1.083,0.789-1.878c0-1.425-0.976-2.138-2.926-2.138H75.193z
				 M75.193,15.284v5.229h2.346c1.016,0,1.805-0.235,2.365-0.706c0.561-0.47,0.84-1.124,0.84-1.961c0-1.708-1.151-2.563-3.455-2.563
				H75.193z"/>
			<path fill="#FFFFFF" d="M98.633,15.896c0,4.621-2.113,6.931-6.34,6.931c-4.053,0-6.08-2.234-6.08-6.702v-9.64h2.49v9.577
				c0,3.051,1.259,4.575,3.777,4.575c2.441,0,3.662-1.473,3.662-4.42V6.485h2.49V15.896z"/>
			<path fill="#FFFFFF" d="M113.49,6.485l-5.271,10.21v5.862h-2.501v-5.811l-5.146-10.262h2.854l3.238,6.817
				c0,0.007,0.127,0.373,0.383,1.1h0.031c0.084-0.359,0.219-0.72,0.404-1.079l3.362-6.838H113.49z"/>
		</g>
		<g enable-background="new    ">
			<path fill="#FFFFFF" d="M44.605,47.425c-1.19,0.602-2.688,0.902-4.493,0.902c-2.324,0-4.187-0.731-5.587-2.194
				c-1.401-1.463-2.102-3.395-2.102-5.795c0-2.504,0.777-4.567,2.33-6.189s3.554-2.433,6.002-2.433c1.542,0,2.826,0.214,3.85,0.644
				v2.521c-1.135-0.636-2.39-0.954-3.767-0.954c-1.75,0-3.154,0.576-4.212,1.728c-1.059,1.151-1.588,2.658-1.588,4.519
				c0,1.778,0.497,3.217,1.489,4.316c0.992,1.1,2.322,1.649,3.989,1.649c1.55,0,2.912-0.355,4.088-1.068V47.425z"/>
			<path fill="#FFFFFF" d="M60.739,48.058H58l-1.504-4.182h-6.433l-1.432,4.182h-2.739l6.06-16.072h2.77L60.739,48.058z
				 M55.8,41.812l-2.241-6.34c-0.083-0.229-0.166-0.633-0.249-1.214h-0.072c-0.063,0.478-0.149,0.875-0.26,1.193l-2.23,6.36H55.8z"
				/>
			<path fill="#FFFFFF" d="M75.183,48.058h-2.915l-2.615-4.379c-0.512-0.857-0.977-1.442-1.396-1.753
				c-0.419-0.312-0.897-0.467-1.437-0.467h-1.35v6.599h-2.49V31.985h5.115c1.668,0,2.955,0.375,3.865,1.126
				c0.91,0.75,1.365,1.814,1.365,3.19c0,1.079-0.315,2.003-0.945,2.771c-0.629,0.768-1.508,1.304-2.635,1.608v0.041
				c0.719,0.249,1.525,1.093,2.418,2.532L75.183,48.058z M65.471,34.04v5.354h2.211c0.92,0,1.654-0.266,2.204-0.799
				c0.55-0.532,0.825-1.21,0.825-2.033c0-1.682-0.996-2.521-2.988-2.521H65.471z"/>
			<path fill="#FFFFFF" d="M76.396,44.727c1.231,1.004,2.681,1.505,4.348,1.505c2.131,0,3.195-0.729,3.195-2.189
				c0-0.422-0.117-0.802-0.352-1.142c-0.236-0.339-0.553-0.634-0.95-0.887c-0.397-0.252-1.185-0.659-2.36-1.219
				c-1.445-0.692-2.455-1.395-3.029-2.106c-0.574-0.713-0.861-1.55-0.861-2.512c0-1.383,0.546-2.473,1.639-3.268
				c1.094-0.796,2.49-1.193,4.192-1.193c1.611,0,2.829,0.197,3.652,0.591v2.553c-0.989-0.685-2.224-1.027-3.704-1.027
				c-0.948,0-1.713,0.19-2.293,0.571c-0.582,0.38-0.872,0.902-0.872,1.566c0,0.602,0.213,1.097,0.638,1.483
				c0.426,0.388,1.323,0.906,2.693,1.557c1.598,0.747,2.701,1.496,3.31,2.246c0.608,0.751,0.913,1.614,0.913,2.589
				c0,1.453-0.525,2.563-1.577,3.331s-2.507,1.151-4.368,1.151c-0.686,0-1.445-0.083-2.283-0.249
				c-0.836-0.166-1.48-0.387-1.93-0.664V44.727z"/>
		</g>
	</g>
</g>
</svg>
