<?xml version="1.0" encoding="utf-8"?>
<!-- Generator: Adobe Illustrator 16.0.0, SVG Export Plug-In . SVG Version: 6.00 Build 0)  -->
<!DOCTYPE svg PUBLIC "-//W3C//DTD SVG 1.1//EN" "http://www.w3.org/Graphics/SVG/1.1/DTD/svg11.dtd">
<svg version="1.1" id="Layer_1" xmlns:sketch="http://www.bohemiancoding.com/sketch/ns"
	 xmlns="http://www.w3.org/2000/svg" xmlns:xlink="http://www.w3.org/1999/xlink" x="0px" y="0px" width="115px" height="37px"
	 viewBox="0 0 115 37" enable-background="new 0 0 115 37" xml:space="preserve">
<title>Artboard 1</title>
<desc>Created with Sketch.</desc>
<g>
	
		<image overflow="visible" opacity="0.4" enable-background="new    " width="94" height="41" xlink:href="B963FFC3.png"  transform="matrix(1 0 0 1 10.5 -1)">
	</image>
	<g>
		<g>
			<path fill="#FFFFFF" d="M13.965,12.214c0.993,0.809,2.162,1.214,3.506,1.214c1.718,0,2.578-0.589,2.578-1.766
				c0-0.34-0.095-0.647-0.285-0.92c-0.188-0.273-0.445-0.512-0.766-0.715c-0.321-0.203-0.956-0.532-1.904-0.983
				c-1.166-0.558-1.979-1.125-2.444-1.699c-0.463-0.574-0.693-1.25-0.693-2.025c0-1.116,0.439-1.995,1.321-2.636
				c0.883-0.643,2.01-0.964,3.383-0.964c1.3,0,2.281,0.159,2.945,0.478v2.059c-0.798-0.552-1.794-0.829-2.987-0.829
				c-0.765,0-1.381,0.154-1.85,0.46c-0.469,0.307-0.703,0.729-0.703,1.264c0,0.485,0.172,0.884,0.516,1.197s1.066,0.731,2.171,1.255
				c1.289,0.603,2.179,1.207,2.67,1.812s0.736,1.301,0.736,2.088c0,1.171-0.425,2.067-1.272,2.686s-2.021,0.929-3.522,0.929
				c-0.553,0-1.166-0.067-1.842-0.201c-0.675-0.134-1.193-0.312-1.557-0.536V12.214z"/>
			<path fill="#FFFFFF" d="M31.765,14.9h-7.18V1.938h6.887v1.724h-4.879v3.816h4.528v1.715h-4.528v3.983h5.172V14.9z"/>
			<path fill="#FFFFFF" d="M41.196,14.9h-7.071V1.938h2.008v11.239h5.063V14.9z"/>
			<path fill="#FFFFFF" d="M50.167,14.9h-7.071V1.938h2.008v11.239h5.063V14.9z"/>
			<path fill="#FFFFFF" d="M60.62,13.243c-1.278,1.245-2.834,1.866-4.67,1.866c-1.4,0-2.513-0.339-3.334-1.017
				c-0.823-0.678-1.234-1.611-1.234-2.799c0-1.741,1.018-3.035,3.054-3.883c-1.015-0.787-1.522-1.693-1.522-2.72
				c0-0.904,0.324-1.625,0.971-2.163c0.647-0.538,1.509-0.808,2.586-0.808c0.993,0,1.805,0.255,2.437,0.766
				c0.63,0.511,0.944,1.182,0.944,2.013c0,1.333-0.803,2.33-2.41,2.988c1.233,0.508,2.371,1.551,3.415,3.13
				c0.961-1.3,1.438-2.834,1.438-4.604c0-0.439-0.055-0.855-0.166-1.247h1.791c0.094,0.329,0.144,0.731,0.144,1.205
				c0,2.114-0.761,4.123-2.277,6.025c0.43,0.541,0.801,0.919,1.113,1.134c0.312,0.215,0.651,0.322,1.021,0.322
				c0.385,0,0.824-0.098,1.322-0.293v1.648c-0.521,0.201-1.062,0.301-1.625,0.301c-0.558,0-1.063-0.137-1.515-0.41
				S61.156,13.941,60.62,13.243z M59.725,11.896c-1.132-1.83-2.46-3.032-3.982-3.607c-1.573,0.647-2.36,1.624-2.36,2.929
				c0,0.703,0.241,1.261,0.724,1.674s1.117,0.619,1.904,0.619C57.454,13.511,58.691,12.973,59.725,11.896z M56.066,6.699
				c1.328-0.458,1.992-1.141,1.992-2.05c0-0.452-0.153-0.813-0.46-1.084s-0.684-0.406-1.13-0.406c-0.519,0-0.939,0.145-1.264,0.435
				s-0.485,0.667-0.485,1.13C54.72,5.544,55.169,6.203,56.066,6.699z"/>
			<path fill="#FFFFFF" d="M67.197,14.9V1.938h4.051c1.222,0,2.186,0.271,2.893,0.812c0.705,0.542,1.059,1.27,1.059,2.184
				c0,0.714-0.215,1.342-0.646,1.883c-0.43,0.541-0.995,0.92-1.698,1.138v0.033c0.882,0.101,1.592,0.433,2.129,0.996
				c0.539,0.563,0.809,1.277,0.809,2.142c0,1.127-0.402,2.038-1.209,2.732c-0.807,0.695-1.87,1.042-3.191,1.042H67.197z
				 M69.206,3.586v3.791h1.456c0.765,0,1.357-0.184,1.783-0.552c0.424-0.368,0.636-0.873,0.636-1.515
				c0-1.149-0.787-1.724-2.36-1.724H69.206z M69.206,9.034v4.218h1.892c0.82,0,1.456-0.19,1.908-0.569
				c0.451-0.379,0.678-0.906,0.678-1.582c0-1.378-0.929-2.067-2.787-2.067H69.206z"/>
			<path fill="#FFFFFF" d="M88.111,9.528c0,3.727-1.704,5.59-5.113,5.59c-3.27,0-4.904-1.802-4.904-5.406V1.938h2.01v7.724
				c0,2.46,1.016,3.69,3.045,3.69c1.971,0,2.955-1.188,2.955-3.565v-7.85h2.009L88.111,9.528L88.111,9.528z"/>
			<path fill="#FFFFFF" d="M100.095,1.938l-4.251,8.234V14.9h-2.018v-4.687l-4.15-8.276h2.301l2.611,5.498
				c0,0.006,0.104,0.301,0.311,0.887h0.024c0.066-0.29,0.177-0.58,0.326-0.871l2.712-5.515h2.134V1.938z"/>
			<path fill="#FFFFFF" d="M44.536,34.956c-0.959,0.485-2.167,0.729-3.624,0.729c-1.875,0-3.377-0.591-4.506-1.771
				c-1.131-1.18-1.695-2.737-1.695-4.674c0-2.021,0.626-3.684,1.879-4.991c1.252-1.31,2.866-1.963,4.841-1.963
				c1.244,0,2.279,0.173,3.104,0.519v2.034c-0.915-0.514-1.929-0.771-3.038-0.771c-1.412,0-2.544,0.465-3.398,1.394
				c-0.854,0.929-1.28,2.144-1.28,3.646c0,1.435,0.4,2.595,1.201,3.48c0.8,0.887,1.873,1.331,3.219,1.331
				c1.25,0,2.349-0.288,3.297-0.862L44.536,34.956L44.536,34.956z"/>
			<path fill="#FFFFFF" d="M57.549,35.467H55.34l-1.213-3.373h-5.188l-1.154,3.373h-2.209l4.887-12.963h2.234L57.549,35.467z
				 M53.564,30.429l-1.808-5.112c-0.067-0.185-0.134-0.512-0.201-0.979h-0.059c-0.05,0.386-0.12,0.705-0.209,0.962l-1.799,5.13
				H53.564z"/>
			<path fill="#FFFFFF" d="M69.198,35.467h-2.353l-2.107-3.531c-0.413-0.691-0.788-1.162-1.126-1.414
				c-0.339-0.252-0.725-0.377-1.159-0.377h-1.088v5.322h-2.009V22.504h4.126c1.345,0,2.384,0.303,3.117,0.908
				s1.101,1.463,1.101,2.572c0,0.871-0.254,1.615-0.763,2.234c-0.506,0.619-1.215,1.053-2.125,1.297v0.033
				c0.58,0.201,1.23,0.883,1.949,2.042L69.198,35.467z M61.365,24.161v4.317h1.781c0.742,0,1.336-0.215,1.778-0.645
				c0.444-0.43,0.666-0.977,0.666-1.641c0-1.355-0.804-2.033-2.409-2.033L61.365,24.161L61.365,24.161z"/>
			<path fill="#FFFFFF" d="M70.177,32.78c0.993,0.81,2.162,1.214,3.507,1.214c1.719,0,2.578-0.589,2.578-1.766
				c0-0.342-0.096-0.647-0.285-0.922c-0.188-0.273-0.444-0.512-0.766-0.716c-0.32-0.202-0.955-0.53-1.904-0.983
				c-1.166-0.558-1.979-1.123-2.442-1.697c-0.464-0.575-0.694-1.25-0.694-2.025c0-1.115,0.439-1.994,1.322-2.636
				c0.882-0.642,2.009-0.963,3.381-0.963c1.3,0,2.282,0.159,2.945,0.478v2.06c-0.799-0.554-1.793-0.829-2.987-0.829
				c-0.765,0-1.381,0.152-1.851,0.461c-0.469,0.307-0.703,0.729-0.703,1.264c0,0.485,0.173,0.885,0.516,1.196
				c0.344,0.313,1.066,0.729,2.172,1.255c1.289,0.604,2.18,1.207,2.67,1.813c0.491,0.606,0.736,1.302,0.736,2.089
				c0,1.172-0.424,2.065-1.271,2.687c-0.849,0.619-2.022,0.93-3.522,0.93c-0.554,0-1.166-0.067-1.843-0.201
				c-0.674-0.135-1.192-0.313-1.557-0.535L70.177,32.78L70.177,32.78z"/>
		</g>
	</g>
</g>
</svg>
