<?xml version="1.0" encoding="utf-8"?>
<!-- Generator: Adobe Illustrator 16.0.0, SVG Export Plug-In . SVG Version: 6.00 Build 0)  -->
<!DOCTYPE svg PUBLIC "-//W3C//DTD SVG 1.1//EN" "http://www.w3.org/Graphics/SVG/1.1/DTD/svg11.dtd">
<svg version="1.1" id="Layer_1" xmlns="http://www.w3.org/2000/svg" xmlns:xlink="http://www.w3.org/1999/xlink" x="0px" y="0px"
	 width="125px" height="39.25px" viewBox="0 0 125 39.25" enable-background="new 0 0 125 39.25" xml:space="preserve">
<g>
	<g>
		<path d="M11.987,12.834c1.108,0.903,2.412,1.354,3.913,1.354c1.917,0,2.876-0.657,2.876-1.97c0-0.379-0.106-0.722-0.317-1.027
			c-0.212-0.305-0.497-0.571-0.854-0.798c-0.358-0.228-1.066-0.593-2.125-1.097c-1.301-0.623-2.21-1.254-2.727-1.896
			s-0.775-1.395-0.775-2.26c0-1.245,0.492-2.226,1.475-2.941c0.984-0.716,2.241-1.074,3.772-1.074c1.451,0,2.546,0.177,3.287,0.532
			v2.297c-0.891-0.616-2.001-0.924-3.333-0.924c-0.853,0-1.541,0.171-2.064,0.514s-0.784,0.812-0.784,1.41
			c0,0.542,0.191,0.987,0.574,1.335s1.19,0.815,2.423,1.4c1.438,0.672,2.431,1.346,2.979,2.022c0.548,0.675,0.822,1.452,0.822,2.33
			c0,1.307-0.473,2.306-1.419,2.998c-0.946,0.691-2.257,1.036-3.931,1.036c-0.616,0-1.301-0.075-2.054-0.224
			c-0.753-0.149-1.332-0.349-1.737-0.598V12.834z"/>
		<path d="M31.848,15.832h-8.012V1.368h7.685v1.923h-5.443v4.258h5.051v1.914h-5.051v4.445h5.771V15.832z"/>
		<path d="M42.371,15.832h-7.89V1.368h2.241v12.541h5.649V15.832z"/>
		<path d="M52.381,15.832h-7.89V1.368h2.241v12.541h5.649V15.832z"/>
		<path d="M64.044,13.983c-1.426,1.388-3.162,2.082-5.21,2.082c-1.563,0-2.803-0.378-3.721-1.134
			c-0.918-0.756-1.377-1.798-1.377-3.124c0-1.942,1.136-3.386,3.408-4.333c-1.133-0.878-1.7-1.89-1.7-3.035
			c0-1.008,0.361-1.813,1.083-2.414c0.722-0.601,1.684-0.901,2.885-0.901c1.108,0,2.013,0.285,2.717,0.854
			c0.703,0.57,1.055,1.318,1.055,2.246c0,1.488-0.896,2.599-2.688,3.333c1.375,0.566,2.646,1.73,3.81,3.492
			c1.07-1.451,1.605-3.162,1.605-5.136c0-0.492-0.062-0.956-0.187-1.391h1.998c0.106,0.367,0.159,0.815,0.159,1.344
			c0,2.359-0.847,4.601-2.54,6.723c0.479,0.604,0.894,1.026,1.242,1.265c0.349,0.24,0.729,0.36,1.139,0.36
			c0.43,0,0.922-0.109,1.476-0.327v1.84c-0.579,0.224-1.183,0.336-1.812,0.336c-0.622,0-1.186-0.152-1.69-0.458
			C65.192,15.303,64.642,14.761,64.044,13.983z M63.045,12.479C61.781,10.438,60.3,9.096,58.6,8.455
			c-1.755,0.722-2.633,1.811-2.633,3.268c0,0.784,0.27,1.407,0.808,1.867c0.539,0.461,1.247,0.691,2.125,0.691
			C60.512,14.282,61.894,13.681,63.045,12.479z M58.964,6.681c1.481-0.51,2.222-1.273,2.222-2.288c0-0.504-0.171-0.907-0.514-1.209
			c-0.343-0.302-0.762-0.453-1.26-0.453c-0.579,0-1.049,0.162-1.41,0.485c-0.361,0.324-0.542,0.744-0.542,1.261
			C57.461,5.392,57.962,6.127,58.964,6.681z"/>
		<path d="M71.383,15.832V1.368h4.52c1.363,0,2.438,0.302,3.226,0.906c0.788,0.604,1.182,1.416,1.182,2.437
			c0,0.797-0.24,1.497-0.719,2.101c-0.479,0.604-1.111,1.027-1.896,1.27v0.037c0.983,0.112,1.775,0.482,2.376,1.111
			s0.901,1.425,0.901,2.39c0,1.258-0.45,2.274-1.35,3.049s-2.087,1.163-3.563,1.163H71.383z M73.624,3.207v4.23h1.625
			c0.853,0,1.516-0.206,1.988-0.616c0.474-0.411,0.71-0.974,0.71-1.69c0-1.283-0.878-1.924-2.634-1.924H73.624z M73.624,9.286v4.706
			h2.11c0.915,0,1.624-0.212,2.129-0.635c0.504-0.423,0.756-1.011,0.756-1.765c0-1.538-1.036-2.306-3.109-2.306H73.624z"/>
		<path d="M94.718,9.837c0,4.158-1.901,6.237-5.705,6.237c-3.647,0-5.472-2.011-5.472-6.032V1.368h2.241v8.619
			c0,2.745,1.133,4.118,3.398,4.118c2.197,0,3.296-1.326,3.296-3.978V1.368h2.241V9.837z"/>
		<path d="M108.089,1.368l-4.743,9.188v5.276h-2.251v-5.229l-4.631-9.235h2.567l2.913,6.135c0,0.006,0.115,0.336,0.346,0.99h0.028
			c0.074-0.324,0.196-0.647,0.364-0.971l3.025-6.153H108.089z"/>
		<path d="M46.097,38.211c-1.07,0.541-2.418,0.813-4.043,0.813c-2.092,0-3.768-0.658-5.028-1.977
			c-1.261-1.316-1.891-3.055-1.891-5.215c0-2.252,0.699-4.109,2.096-5.568c1.397-1.461,3.198-2.19,5.402-2.19
			c1.388,0,2.542,0.192,3.464,0.579v2.27c-1.021-0.574-2.151-0.859-3.389-0.859c-1.575,0-2.839,0.518-3.791,1.555
			c-0.953,1.035-1.429,2.391-1.429,4.066c0,1.6,0.446,2.895,1.34,3.885c0.893,0.988,2.09,1.484,3.59,1.484
			c1.394,0,2.621-0.32,3.679-0.963V38.211z"/>
		<path d="M60.616,38.779h-2.465l-1.354-3.762h-5.789l-1.289,3.762h-2.465l5.453-14.463h2.493L60.616,38.779z M56.172,33.158
			l-2.017-5.705c-0.075-0.205-0.149-0.57-0.224-1.092h-0.065c-0.056,0.43-0.134,0.787-0.233,1.074l-2.008,5.723H56.172z"/>
		<path d="M73.615,38.779h-2.624l-2.354-3.939c-0.461-0.771-0.879-1.299-1.256-1.578c-0.377-0.281-0.808-0.42-1.293-0.42h-1.214
			v5.938h-2.241V24.316h4.604c1.5,0,2.659,0.338,3.479,1.012c0.818,0.676,1.228,1.633,1.228,2.873c0,0.971-0.283,1.801-0.85,2.492
			s-1.357,1.174-2.372,1.447v0.037c0.647,0.225,1.373,0.984,2.176,2.279L73.615,38.779z M64.875,26.164v4.818h1.988
			c0.828,0,1.489-0.238,1.984-0.719c0.495-0.479,0.742-1.09,0.742-1.83c0-1.512-0.896-2.27-2.688-2.27H64.875z"/>
		<path d="M74.708,35.783c1.107,0.902,2.412,1.354,3.912,1.354c1.917,0,2.876-0.656,2.876-1.971c0-0.379-0.106-0.723-0.317-1.027
			c-0.212-0.305-0.497-0.57-0.854-0.799c-0.358-0.227-1.066-0.592-2.124-1.096c-1.302-0.623-2.21-1.256-2.727-1.896
			c-0.518-0.641-0.775-1.395-0.775-2.26c0-1.244,0.491-2.225,1.476-2.941c0.983-0.715,2.241-1.073,3.772-1.073
			c1.45,0,2.546,0.177,3.286,0.532v2.297c-0.89-0.617-2.001-0.924-3.333-0.924c-0.854,0-1.541,0.17-2.063,0.514
			c-0.523,0.342-0.784,0.813-0.784,1.41c0,0.541,0.191,0.986,0.574,1.334c0.383,0.35,1.19,0.816,2.423,1.4
			c1.438,0.674,2.431,1.348,2.979,2.021c0.548,0.676,0.821,1.453,0.821,2.33c0,1.309-0.473,2.307-1.419,2.998
			s-2.257,1.037-3.931,1.037c-0.617,0-1.302-0.076-2.055-0.225c-0.753-0.15-1.332-0.35-1.736-0.598V35.783z"/>
	</g>
</g>
</svg>
