<?xml version="1.0" encoding="utf-8"?>
<!-- Generator: Adobe Illustrator 16.0.0, SVG Export Plug-In . SVG Version: 6.00 Build 0)  -->
<!DOCTYPE svg PUBLIC "-//W3C//DTD SVG 1.1//EN" "http://www.w3.org/Graphics/SVG/1.1/DTD/svg11.dtd">
<svg version="1.1" id="Layer_1" xmlns="http://www.w3.org/2000/svg" xmlns:xlink="http://www.w3.org/1999/xlink" x="0px" y="0px"
	 width="125px" height="55px" viewBox="0 0 125 55" enable-background="new 0 0 125 55" xml:space="preserve">
<text transform="matrix(1 0 0 1 24.5 48.25)" fill="#FCFCFC" font-family="'ArialMT'" font-size="14">FURNITURE</text>
<g>
	<image overflow="visible" opacity="0.4" width="103" height="45" xlink:href="815C3473.png"  transform="matrix(1 0 0 1 9 3)">
	</image>
	<g>
		<g>
			<path fill="#FFFFFF" d="M11.987,17.667c1.108,0.903,2.412,1.354,3.913,1.354c1.917,0,2.876-0.657,2.876-1.97
				c0-0.379-0.106-0.722-0.317-1.027c-0.212-0.305-0.497-0.571-0.854-0.798c-0.358-0.228-1.066-0.593-2.125-1.097
				c-1.301-0.623-2.21-1.254-2.727-1.896s-0.775-1.395-0.775-2.26c0-1.245,0.492-2.226,1.475-2.941
				c0.984-0.716,2.241-1.074,3.772-1.074c1.451,0,2.546,0.177,3.287,0.532v2.297c-0.891-0.616-2.001-0.924-3.333-0.924
				c-0.853,0-1.541,0.171-2.064,0.514s-0.784,0.812-0.784,1.41c0,0.542,0.191,0.987,0.574,1.335s1.19,0.815,2.423,1.4
				c1.438,0.672,2.431,1.346,2.979,2.022c0.548,0.675,0.822,1.452,0.822,2.33c0,1.307-0.473,2.306-1.419,2.998
				c-0.946,0.691-2.257,1.036-3.931,1.036c-0.616,0-1.301-0.075-2.054-0.224c-0.753-0.149-1.332-0.349-1.737-0.598V17.667z"/>
			<path fill="#FFFFFF" d="M31.848,20.665h-8.012V6.201h7.685v1.923h-5.443v4.258h5.051v1.914h-5.051v4.445h5.771V20.665z"/>
			<path fill="#FFFFFF" d="M42.371,20.665h-7.89V6.201h2.241v12.541h5.649V20.665z"/>
			<path fill="#FFFFFF" d="M52.381,20.665h-7.89V6.201h2.241v12.541h5.649V20.665z"/>
			<path fill="#FFFFFF" d="M64.044,18.816c-1.426,1.388-3.162,2.082-5.21,2.082c-1.563,0-2.803-0.378-3.721-1.134
				c-0.918-0.756-1.377-1.798-1.377-3.124c0-1.942,1.136-3.386,3.408-4.333c-1.133-0.878-1.7-1.89-1.7-3.035
				c0-1.008,0.361-1.813,1.083-2.414c0.722-0.601,1.684-0.901,2.885-0.901c1.108,0,2.013,0.285,2.717,0.854
				c0.703,0.57,1.055,1.318,1.055,2.246c0,1.488-0.896,2.599-2.688,3.333c1.375,0.566,2.646,1.73,3.81,3.492
				c1.07-1.451,1.605-3.162,1.605-5.136c0-0.492-0.062-0.956-0.187-1.391h1.998c0.106,0.367,0.159,0.815,0.159,1.344
				c0,2.359-0.847,4.601-2.54,6.723c0.479,0.604,0.894,1.026,1.242,1.265c0.349,0.24,0.729,0.36,1.139,0.36
				c0.43,0,0.922-0.109,1.476-0.327v1.84c-0.579,0.224-1.183,0.336-1.812,0.336c-0.622,0-1.186-0.152-1.69-0.458
				C65.192,20.136,64.642,19.594,64.044,18.816z M63.045,17.313c-1.264-2.042-2.745-3.383-4.445-4.024
				c-1.755,0.722-2.633,1.811-2.633,3.268c0,0.784,0.27,1.407,0.808,1.867c0.539,0.461,1.247,0.691,2.125,0.691
				C60.512,19.115,61.894,18.514,63.045,17.313z M58.964,11.514c1.481-0.51,2.222-1.273,2.222-2.288
				c0-0.504-0.171-0.907-0.514-1.209c-0.343-0.302-0.762-0.453-1.26-0.453c-0.579,0-1.049,0.162-1.41,0.485
				c-0.361,0.324-0.542,0.744-0.542,1.261C57.461,10.226,57.962,10.96,58.964,11.514z"/>
			<path fill="#FFFFFF" d="M71.383,20.665V6.201h4.52c1.363,0,2.438,0.302,3.226,0.906c0.788,0.604,1.182,1.416,1.182,2.437
				c0,0.797-0.24,1.497-0.719,2.101c-0.479,0.604-1.111,1.027-1.896,1.27v0.037c0.983,0.112,1.775,0.482,2.376,1.111
				s0.901,1.425,0.901,2.39c0,1.258-0.45,2.274-1.35,3.049s-2.087,1.163-3.563,1.163H71.383z M73.624,8.041v4.23h1.625
				c0.853,0,1.516-0.206,1.988-0.616c0.474-0.411,0.71-0.974,0.71-1.69c0-1.283-0.878-1.924-2.634-1.924H73.624z M73.624,14.12
				v4.706h2.11c0.915,0,1.624-0.212,2.129-0.635c0.504-0.423,0.756-1.011,0.756-1.765c0-1.538-1.036-2.306-3.109-2.306H73.624z"/>
			<path fill="#FFFFFF" d="M94.718,14.67c0,4.158-1.901,6.237-5.705,6.237c-3.647,0-5.472-2.011-5.472-6.032V6.201h2.241v8.619
				c0,2.745,1.133,4.118,3.398,4.118c2.197,0,3.296-1.326,3.296-3.978V6.201h2.241V14.67z"/>
			<path fill="#FFFFFF" d="M108.089,6.201l-4.743,9.188v5.276h-2.251v-5.229l-4.631-9.235h2.567l2.913,6.135
				c0,0.006,0.115,0.336,0.346,0.99h0.028c0.074-0.324,0.196-0.647,0.364-0.971l3.025-6.153H108.089z"/>
			<path fill="#FFFFFF" d="M46.097,43.044c-1.07,0.541-2.418,0.813-4.043,0.813c-2.092,0-3.768-0.658-5.028-1.976
				c-1.261-1.316-1.891-3.055-1.891-5.215c0-2.253,0.699-4.11,2.096-5.569c1.397-1.46,3.198-2.19,5.402-2.19
				c1.388,0,2.542,0.193,3.464,0.579v2.27c-1.021-0.573-2.151-0.859-3.389-0.859c-1.575,0-2.839,0.519-3.791,1.555
				c-0.953,1.036-1.429,2.392-1.429,4.066c0,1.6,0.446,2.895,1.34,3.885c0.893,0.989,2.09,1.484,3.59,1.484
				c1.394,0,2.621-0.32,3.679-0.962V43.044z"/>
			<path fill="#FFFFFF" d="M60.616,43.613h-2.465l-1.354-3.763h-5.789l-1.289,3.763h-2.465l5.453-14.464h2.493L60.616,43.613z
				 M56.172,37.992l-2.017-5.705c-0.075-0.206-0.149-0.57-0.224-1.093h-0.065c-0.056,0.43-0.134,0.787-0.233,1.074l-2.008,5.724
				H56.172z"/>
			<path fill="#FFFFFF" d="M73.615,43.613h-2.624l-2.354-3.94c-0.461-0.771-0.879-1.298-1.256-1.578s-0.808-0.42-1.293-0.42h-1.214
				v5.938h-2.241V29.149h4.604c1.5,0,2.659,0.338,3.479,1.013c0.818,0.676,1.228,1.633,1.228,2.872c0,0.971-0.283,1.802-0.85,2.493
				c-0.566,0.69-1.357,1.173-2.372,1.447v0.037c0.647,0.224,1.373,0.983,2.176,2.278L73.615,43.613z M64.875,30.998v4.818h1.988
				c0.828,0,1.489-0.239,1.984-0.719s0.742-1.09,0.742-1.83c0-1.513-0.896-2.27-2.688-2.27H64.875z"/>
			<path fill="#FFFFFF" d="M74.708,40.616c1.107,0.902,2.412,1.354,3.912,1.354c1.917,0,2.876-0.656,2.876-1.97
				c0-0.38-0.106-0.723-0.317-1.027c-0.212-0.305-0.497-0.571-0.854-0.799c-0.358-0.227-1.066-0.593-2.124-1.097
				c-1.302-0.623-2.21-1.255-2.727-1.896c-0.518-0.642-0.775-1.395-0.775-2.26c0-1.245,0.491-2.226,1.476-2.941
				c0.983-0.716,2.241-1.074,3.772-1.074c1.45,0,2.546,0.178,3.286,0.533v2.297c-0.89-0.617-2.001-0.925-3.333-0.925
				c-0.854,0-1.541,0.171-2.063,0.514c-0.523,0.342-0.784,0.813-0.784,1.41c0,0.541,0.191,0.986,0.574,1.335s1.19,0.815,2.423,1.4
				c1.438,0.673,2.431,1.347,2.979,2.021c0.548,0.676,0.821,1.452,0.821,2.33c0,1.308-0.473,2.307-1.419,2.997
				c-0.946,0.691-2.257,1.037-3.931,1.037c-0.617,0-1.302-0.075-2.055-0.225s-1.332-0.349-1.736-0.598V40.616z"/>
		</g>
	</g>
</g>
</svg>
